<svg width="30" height="35" viewBox="0 0 30 35" fill="none" xmlns="http://www.w3.org/2000/svg">
<g clip-path="url(#clip0_1120_18)">
<path d="M15.1452 27.8531L12.9731 30.0252C10.0053 32.993 5.19359 32.993 2.22582 30.0252C-0.737851 27.0615 -0.742533 22.2579 2.21536 19.2885L4.40732 17.0879L15.1452 27.8531Z" fill="#5B77FF"/>
<path d="M15.1383 17.0903L15.1429 27.8537L4.40137 17.0898L15.1383 17.0903Z" fill="#6D86FF"/>
<path d="M15.1445 6.35204L17.3434 4.16071C20.3123 1.20196 25.1163 1.20607 28.0801 4.1699C31.0475 7.13731 31.0475 11.9484 28.0801 14.9159L25.9073 17.0886L15.1445 6.35204Z" fill="#9AABFF"/>
<path d="M15.1387 17.0947L15.1433 6.34961L25.909 17.0885L15.1387 17.0947Z" fill="#8CA0FF"/>
<path d="M25.9065 17.0879L28.0949 19.2845C31.056 22.2565 31.0515 27.0648 28.085 30.0314C25.1185 32.9978 20.3104 33.0024 17.3383 30.0416L15.1416 27.8532L25.9065 17.0879Z" fill="#8599FF"/>
<path d="M15.1357 17.0931L25.9095 17.0869L15.1433 27.8542L15.1357 17.0931Z" fill="#7E94FF"/>
<path d="M4.40592 17.088L2.22854 14.9106C-0.736337 11.9457 -0.736336 7.13873 2.22855 4.17385C5.19342 1.20897 10.0004 1.20898 12.9653 4.17385L15.1431 6.35164L4.40592 17.088Z" fill="#738AFF"/>
<path d="M15.1385 17.094L4.40039 17.0918L15.1434 6.35254L15.1385 17.094Z" fill="#778EFF"/>
<path d="M0.0214844 10.1172H0.0286497C0.160412 11.8644 0.894856 13.5747 2.23079 14.9108L4.40347 17.0835L4.41054 17.0904L4.40347 17.0958L2.23969 19.2762C0.876288 20.6396 0.130955 22.3849 0.0214844 24.1692V10.1172Z" fill="#6881FE"/>
<path d="M22.1349 1.96484V1.97201C20.3878 2.10377 18.6775 2.83821 17.3413 4.17414L15.1564 6.34375L15.1454 6.3547L15.1432 6.35175L12.9728 4.18295C11.6094 2.81956 9.87052 2.09296 8.08301 1.96484H22.1349Z" fill="#8398FF"/>
</g>
<defs>
<clipPath id="clip0_1120_18">
<rect width="30" height="35" fill="white"/>
</clipPath>
</defs>
</svg>
